<svg xmlns="http://www.w3.org/2000/svg" xmlns:xlink="http://www.w3.org/1999/xlink" width="128" zoomAndPan="magnify" viewBox="0 0 96 95.999999" height="128" preserveAspectRatio="xMidYMid meet" version="1.0"><defs><clipPath id="id1"><path d="M 5.332031 9.601562 L 90.832031 9.601562 L 90.832031 86.101562 L 5.332031 86.101562 Z M 5.332031 9.601562 " clip-rule="nonzero"/></clipPath></defs><g clip-path="url(#id1)"><path fill="#8c52ff" d="M 8.183594 20.933594 L 8.183594 13.851562 C 8.183594 13.070312 8.824219 12.433594 9.609375 12.433594 L 86.558594 12.433594 C 87.34375 12.433594 87.984375 13.070312 87.984375 13.851562 L 87.984375 20.933594 Z M 86.558594 9.601562 L 9.609375 9.601562 C 7.25 9.601562 5.332031 11.503906 5.332031 13.851562 L 5.332031 81.847656 C 5.332031 84.195312 7.25 86.097656 9.609375 86.097656 L 60.910156 86.097656 L 60.910156 83.265625 L 9.609375 83.265625 C 8.824219 83.265625 8.183594 82.628906 8.183594 81.847656 L 8.183594 23.765625 L 87.984375 23.765625 L 87.984375 81.847656 C 87.984375 82.628906 87.34375 83.265625 86.558594 83.265625 L 72.308594 83.265625 L 72.308594 86.097656 L 86.558594 86.097656 C 88.917969 86.097656 90.832031 84.195312 90.832031 81.847656 L 90.832031 13.851562 C 90.832031 11.503906 88.917969 9.601562 86.558594 9.601562 " fill-opacity="1" fill-rule="nonzero"/></g><path fill="#8c52ff" d="M 11.035156 18.101562 L 13.882812 18.101562 L 13.882812 15.265625 L 11.035156 15.265625 L 11.035156 18.101562 " fill-opacity="1" fill-rule="nonzero"/><path fill="#8c52ff" d="M 16.734375 18.101562 L 19.582031 18.101562 L 19.582031 15.265625 L 16.734375 15.265625 L 16.734375 18.101562 " fill-opacity="1" fill-rule="nonzero"/><path fill="#8c52ff" d="M 22.433594 18.101562 L 25.285156 18.101562 L 25.285156 15.265625 L 22.433594 15.265625 L 22.433594 18.101562 " fill-opacity="1" fill-rule="nonzero"/><path fill="#8c52ff" d="M 80.859375 40.765625 L 66.609375 40.765625 L 66.609375 29.433594 L 80.859375 29.433594 Z M 83.707031 26.601562 L 63.757812 26.601562 L 63.757812 43.601562 L 83.707031 43.601562 L 83.707031 26.601562 " fill-opacity="1" fill-rule="nonzero"/><path fill="#8c52ff" d="M 55.207031 40.765625 L 40.957031 40.765625 L 40.957031 29.433594 L 55.207031 29.433594 Z M 58.058594 26.601562 L 38.109375 26.601562 L 38.109375 43.601562 L 58.058594 43.601562 L 58.058594 26.601562 " fill-opacity="1" fill-rule="nonzero"/><path fill="#8c52ff" d="M 32.410156 46.433594 L 12.457031 46.433594 L 12.457031 49.265625 L 32.410156 49.265625 L 32.410156 46.433594 " fill-opacity="1" fill-rule="nonzero"/><path fill="#8c52ff" d="M 29.558594 40.765625 L 15.308594 40.765625 L 15.308594 29.433594 L 29.558594 29.433594 Z M 32.410156 26.601562 L 12.457031 26.601562 L 12.457031 43.601562 L 32.410156 43.601562 L 32.410156 26.601562 " fill-opacity="1" fill-rule="nonzero"/><path fill="#8c52ff" d="M 29.558594 67.683594 L 15.308594 67.683594 L 15.308594 56.351562 L 29.558594 56.351562 Z M 32.410156 53.515625 L 12.457031 53.515625 L 12.457031 70.515625 L 32.410156 70.515625 L 32.410156 53.515625 " fill-opacity="1" fill-rule="nonzero"/><path fill="#8c52ff" d="M 12.457031 76.183594 L 32.410156 76.183594 L 32.410156 73.351562 L 12.457031 73.351562 L 12.457031 76.183594 " fill-opacity="1" fill-rule="nonzero"/><path fill="#8c52ff" d="M 38.109375 49.265625 L 58.058594 49.265625 L 58.058594 46.433594 L 38.109375 46.433594 L 38.109375 49.265625 " fill-opacity="1" fill-rule="nonzero"/><path fill="#8c52ff" d="M 63.757812 49.265625 L 83.707031 49.265625 L 83.707031 46.433594 L 63.757812 46.433594 L 63.757812 49.265625 " fill-opacity="1" fill-rule="nonzero"/><path fill="#8c52ff" d="M 63.757812 76.183594 L 83.707031 76.183594 L 83.707031 73.351562 L 63.757812 73.351562 L 63.757812 76.183594 " fill-opacity="1" fill-rule="nonzero"/><path fill="#8c52ff" d="M 38.109375 64.851562 C 38.109375 59.382812 42.582031 54.933594 48.082031 54.933594 C 53.582031 54.933594 58.058594 59.382812 58.058594 64.851562 C 58.058594 70.316406 53.582031 74.765625 48.082031 74.765625 C 42.582031 74.765625 38.109375 70.316406 38.109375 64.851562 Z M 60.910156 64.851562 C 60.910156 57.820312 55.152344 52.101562 48.082031 52.101562 C 41.015625 52.101562 35.257812 57.820312 35.257812 64.851562 C 35.257812 71.878906 41.015625 77.597656 48.082031 77.597656 C 51.105469 77.597656 53.882812 76.546875 56.078125 74.800781 L 67.027344 85.683594 L 69.039062 83.679688 L 58.089844 72.796875 C 59.851562 70.617188 60.910156 67.855469 60.910156 64.851562 " fill-opacity="1" fill-rule="nonzero"/><path fill="#8c52ff" d="M 49.507812 59.183594 L 46.660156 59.183594 L 46.660156 63.433594 L 42.382812 63.433594 L 42.382812 66.265625 L 46.660156 66.265625 L 46.660156 70.515625 L 49.507812 70.515625 L 49.507812 66.265625 L 53.785156 66.265625 L 53.785156 63.433594 L 49.507812 63.433594 L 49.507812 59.183594 " fill-opacity="1" fill-rule="nonzero"/><path fill="#8c52ff" d="M 66.609375 56.351562 L 80.859375 56.351562 L 80.859375 67.683594 L 66.609375 67.683594 Z M 63.757812 70.515625 L 83.707031 70.515625 L 83.707031 53.515625 L 63.757812 53.515625 L 63.757812 70.515625 " fill-opacity="1" fill-rule="nonzero"/></svg>