<?xml version="1.0" encoding="UTF-8"?><svg id="a" xmlns="http://www.w3.org/2000/svg" viewBox="0 0 490 97.6"><polygon points="60.4 37.3 48.9 0 37.4 37.3 0 37.3 30.2 60.3 18.7 97.6 48.9 74.5 79.1 97.6 67.6 60.3 97.8 37.3 60.4 37.3"/><polygon points="158.5 37.3 146.9 0 135.4 37.3 98.1 37.3 128.3 60.3 116.7 97.6 146.9 74.5 177.2 97.6 165.6 60.3 195.8 37.3 158.5 37.3"/><polygon points="256.5 37.3 245 0 233.5 37.3 196.1 37.3 226.3 60.3 214.8 97.6 245 74.5 275.2 97.6 263.7 60.3 293.9 37.3 256.5 37.3"/><polygon points="354.6 37.3 343.1 0 331.5 37.3 294.2 37.3 324.4 60.3 312.8 97.6 343.1 74.5 373.3 97.6 361.7 60.3 391.9 37.3 354.6 37.3"/><polygon points="441.1 0 429.6 37.3 392.2 37.3 422.4 60.3 410.9 97.6 441.1 74.5 471.3 97.6 459.8 60.3 490 37.3 452.6 37.3 441.1 0"/></svg>