<svg xmlns="http://www.w3.org/2000/svg" xmlns:xlink="http://www.w3.org/1999/xlink" width="128" zoomAndPan="magnify" viewBox="0 0 96 95.999999" height="128" preserveAspectRatio="xMidYMid meet" version="1.0"><defs><clipPath id="id1"><path d="M 3.371094 14 L 96 14 L 96 82 L 3.371094 82 Z M 3.371094 14 " clip-rule="nonzero"/></clipPath><clipPath id="id2"><path d="M 3.371094 17 L 95 17 L 95 83 L 3.371094 83 Z M 3.371094 17 " clip-rule="nonzero"/></clipPath></defs><g clip-path="url(#id1)"><path fill="#5e17eb" d="M 13.929688 81.617188 L 56.757812 76.066406 L 90.496094 66.304688 C 94.21875 65.230469 96.371094 61.328125 95.292969 57.605469 L 84.179688 19.1875 C 83.101562 15.460938 79.203125 13.3125 75.476562 14.390625 L 7.464844 34.0625 C 6 34.488281 4.777344 35.347656 3.90625 36.464844 L 3.917969 36.472656 L 7.542969 59.613281 L 13.78125 81.183594 Z M 13.929688 81.617188 " fill-opacity="1" fill-rule="evenodd"/></g><g clip-path="url(#id2)"><path fill="#b980f0" d="M 87.800781 23.863281 C 87.203125 20.035156 83.605469 17.410156 79.773438 18.011719 L 9.824219 28.964844 C 5.996094 29.5625 3.371094 33.160156 3.972656 36.992188 L 10.15625 76.503906 C 10.757812 80.335938 14.355469 82.957031 18.1875 82.359375 L 88.132812 71.40625 C 91.964844 70.804688 94.589844 67.207031 93.988281 63.378906 Z M 87.800781 23.863281 " fill-opacity="1" fill-rule="evenodd"/></g><path fill="#ffffff" d="M 79.152344 57.300781 C 78.933594 57.265625 78.707031 57.265625 78.472656 57.300781 L 74.199219 57.96875 C 73.019531 58.15625 72.214844 59.261719 72.398438 60.441406 L 73.066406 64.714844 C 73.25 65.894531 74.359375 66.703125 75.539062 66.519531 L 79.8125 65.847656 C 80.992188 65.664062 81.800781 64.554688 81.617188 63.378906 L 81.074219 59.914062 L 84.019531 59.453125 C 84.835938 59.324219 85.390625 58.5625 85.265625 57.746094 L 84.800781 54.800781 C 84.675781 53.984375 83.910156 53.429688 83.097656 53.554688 L 80.148438 54.019531 C 79.335938 54.144531 78.78125 54.910156 78.90625 55.722656 Z M 79.152344 57.300781 " fill-opacity="1" fill-rule="evenodd"/><path fill="#cb6ce6" d="M 80.671875 28.421875 C 80.390625 26.628906 78.710938 25.40625 76.921875 25.683594 L 70.4375 26.699219 C 68.648438 26.980469 67.421875 28.660156 67.703125 30.449219 L 68.925781 38.269531 C 69.207031 40.058594 70.886719 41.285156 72.675781 41.003906 L 79.160156 39.988281 C 80.949219 39.707031 82.175781 38.027344 81.894531 36.238281 Z M 80.671875 28.421875 " fill-opacity="1" fill-rule="evenodd"/><path fill="#ffffff" d="M 17.164062 75.660156 L 18.238281 73.566406 L 16.652344 72.003906 L 17.875 71.8125 L 18.703125 72.710938 L 19.253906 71.597656 L 20.429688 71.410156 L 19.417969 73.339844 L 21.117188 75.039062 L 19.886719 75.230469 L 18.941406 74.222656 L 18.339844 75.472656 Z M 17.164062 75.660156 " fill-opacity="1" fill-rule="nonzero"/><path fill="#ffffff" d="M 21.230469 75.023438 L 22.300781 72.929688 L 20.714844 71.367188 L 21.9375 71.175781 L 22.765625 72.074219 L 23.316406 70.960938 L 24.492188 70.777344 L 23.480469 72.703125 L 25.183594 74.402344 L 23.953125 74.59375 L 23.003906 73.585938 L 22.402344 74.839844 Z M 21.230469 75.023438 " fill-opacity="1" fill-rule="nonzero"/><path fill="#ffffff" d="M 25.292969 74.386719 L 26.367188 72.292969 L 24.78125 70.730469 L 26.003906 70.539062 L 26.832031 71.4375 L 27.378906 70.324219 L 28.558594 70.140625 L 27.542969 72.066406 L 29.246094 73.765625 L 28.015625 73.960938 L 27.066406 72.949219 L 26.46875 74.203125 Z M 25.292969 74.386719 " fill-opacity="1" fill-rule="nonzero"/><path fill="#ffffff" d="M 31.386719 73.429688 L 32.460938 71.339844 L 30.875 69.777344 L 32.097656 69.585938 L 32.925781 70.480469 L 33.472656 69.371094 L 34.652344 69.183594 L 33.636719 71.113281 L 35.339844 72.8125 L 34.109375 73.003906 L 33.160156 71.996094 L 32.5625 73.246094 Z M 31.386719 73.429688 " fill-opacity="1" fill-rule="nonzero"/><path fill="#ffffff" d="M 35.453125 72.796875 L 36.523438 70.703125 L 34.9375 69.140625 L 36.160156 68.949219 L 36.988281 69.847656 L 37.539062 68.734375 L 38.714844 68.546875 L 37.703125 70.476562 L 39.40625 72.175781 L 38.171875 72.367188 L 37.226562 71.359375 L 36.625 72.613281 Z M 35.453125 72.796875 " fill-opacity="1" fill-rule="nonzero"/><path fill="#ffffff" d="M 39.515625 72.160156 L 40.585938 70.066406 L 39 68.503906 L 40.226562 68.3125 L 41.050781 69.210938 L 41.601562 68.097656 L 42.78125 67.914062 L 41.765625 69.839844 L 43.46875 71.539062 L 42.238281 71.734375 L 41.289062 70.722656 L 40.6875 71.976562 Z M 39.515625 72.160156 " fill-opacity="1" fill-rule="nonzero"/><path fill="#ffffff" d="M 45.609375 71.203125 L 46.679688 69.113281 L 45.09375 67.550781 L 46.320312 67.359375 L 47.148438 68.253906 L 47.695312 67.140625 L 48.875 66.957031 L 47.859375 68.886719 L 49.5625 70.585938 L 48.332031 70.777344 L 47.382812 69.769531 L 46.78125 71.019531 Z M 45.609375 71.203125 " fill-opacity="1" fill-rule="nonzero"/><path fill="#ffffff" d="M 49.671875 70.566406 L 50.746094 68.476562 L 49.160156 66.914062 L 50.382812 66.722656 L 51.210938 67.621094 L 51.761719 66.507812 L 52.9375 66.320312 L 51.921875 68.25 L 53.625 69.949219 L 52.394531 70.140625 L 51.449219 69.132812 L 50.847656 70.382812 Z M 49.671875 70.566406 " fill-opacity="1" fill-rule="nonzero"/><path fill="#ffffff" d="M 53.738281 69.933594 L 54.808594 67.839844 L 53.222656 66.277344 L 54.445312 66.085938 L 55.273438 66.984375 L 55.824219 65.871094 L 57 65.683594 L 55.988281 67.613281 L 57.691406 69.3125 L 56.460938 69.503906 L 55.511719 68.496094 L 54.910156 69.75 Z M 53.738281 69.933594 " fill-opacity="1" fill-rule="nonzero"/><path fill="#ffffff" d="M 57.800781 69.296875 L 58.875 67.203125 L 57.285156 65.640625 L 58.511719 65.449219 L 59.339844 66.347656 L 59.886719 65.234375 L 61.066406 65.050781 L 60.050781 66.976562 L 61.753906 68.675781 L 60.523438 68.871094 L 59.574219 67.859375 L 58.972656 69.113281 Z M 57.800781 69.296875 " fill-opacity="1" fill-rule="nonzero"/><path stroke-linecap="butt" transform="matrix(0.135116, 0, 0, 0.135116, 3.885529, 14.110695)" fill-opacity="1" fill="#ffffff" fill-rule="nonzero" stroke-linejoin="round" d="M 102.669813 197.940073 L 92.262052 199.674699 L 86.711246 191.839968 L 67.803812 195.020117 L 65.317513 204.18473 L 55.198856 205.890446 L 67.312334 165.300175 L 77.430991 163.594459 Z M 82.577051 186.057878 L 73.730454 173.221639 L 69.682991 188.197251 Z M 82.577051 186.057878 " stroke="#ffffff" stroke-width="1" stroke-opacity="1" stroke-miterlimit="2"/><path stroke-linecap="butt" transform="matrix(0.135116, 0, 0, 0.135116, 3.885529, 14.110695)" fill-opacity="1" fill="#ffffff" fill-rule="nonzero" stroke-linejoin="round" d="M 114.494187 195.945252 L 109.261396 164.779787 L 95.210918 167.150444 L 94.170141 160.790145 L 131.753725 154.487667 L 132.823412 160.819056 L 118.801844 163.189713 L 124.034635 194.355177 Z M 114.494187 195.945252 " stroke="#ffffff" stroke-width="1" stroke-opacity="1" stroke-miterlimit="2"/><path stroke-linecap="butt" transform="matrix(0.135116, 0, 0, 0.135116, 3.885529, 14.110695)" fill-opacity="1" fill="#ffffff" fill-rule="nonzero" stroke-linejoin="round" d="M 144.098487 190.972654 L 137.796009 153.475802 L 152.077771 151.076235 L 164.971831 175.21646 L 169.163846 148.2141 L 183.503429 145.814533 L 189.776997 183.311385 L 180.901489 184.814729 L 175.957802 155.26825 L 171.505593 186.375893 L 162.31207 187.937057 L 148.001398 159.980653 L 152.973995 189.498221 Z M 144.098487 190.972654 " stroke="#ffffff" stroke-width="1" stroke-opacity="1" stroke-miterlimit="2"/></svg>